# xmcd
#
# Track frame offsets:
#	150
#	20532
#	37715
#	55040
#	75347
#	92305
#	104243
#	119687
#	140702
#	158852
#	178855
#
# Disc length: 2586 seconds
#
# Revision: 1
# Processed by: cddbd v1.5.2PL0 Copyright (c) Steve Scherf et al.
# Submitted via: audiograbber 1.83.01
#
DISCID=890a180b
DTITLE=Coyote Slim - In My Own Time
DYEAR=2006
DGENRE=Acoustic Blues
TTITLE0=Driftin In My Own Time
TTITLE1=You Don't Love Me
TTITLE2=Drop Down Mama
TTITLE3=Blues Creole
TTITLE4=Jinx Blues
TTITLE5=Sahel Stomp
TTITLE6=Baby Please Don't Go
TTITLE7=Did You Get That Letter
TTITLE8=Banty Rooster Blues
TTITLE9=Blues Won't Let Me Take My Rest
TTITLE10=Drop Poor Me A Line
EXTD=
EXTT0=
EXTT1=
EXTT2=
EXTT3=
EXTT4=
EXTT5=
EXTT6=
EXTT7=
EXTT8=
EXTT9=
EXTT10=
PLAYORDER=
